<?xml version="1.0" standalone="no"?>
<!DOCTYPE svg PUBLIC "-//W3C//DTD SVG 20010904//EN"
 "http://www.w3.org/TR/2001/REC-SVG-20010904/DTD/svg10.dtd">
<svg version="1.0" xmlns="http://www.w3.org/2000/svg"
 width="480.000000pt" height="480.000000pt" viewBox="0 0 480.000000 480.000000"
 preserveAspectRatio="xMidYMid meet">

<g transform="translate(0.000000,480.000000) scale(0.100000,-0.100000)"
fill="#000000" stroke="none">
<path d="M101 4736 c-52 -29 -50 17 -51 -1118 l0 -1058 29 -32 29 -33 1039 -3
c571 -1 1053 0 1072 3 18 4 44 17 57 30 l24 24 0 1066 c0 712 -3 1073 -10
1086 -28 51 10 49 -1117 49 -851 -1 -1052 -3 -1072 -14z m1482 -478 c-5 -7
-31 -39 -57 -72 -37 -47 -44 -61 -35 -72 7 -8 73 -61 148 -118 206 -156 251
-212 251 -311 0 -194 -109 -420 -264 -546 -261 -213 -631 -223 -893 -25 -158
119 -265 341 -267 552 -1 91 -1 92 39 149 26 38 83 94 165 160 69 57 135 114
147 127 l23 24 -55 66 c-30 36 -55 69 -55 72 0 3 194 6 431 6 344 0 430 -3
422 -12z"/>
<path d="M2534 4740 c-57 -23 -54 40 -54 -1118 0 -743 3 -1069 11 -1084 26
-49 6 -48 1112 -48 712 0 1044 3 1065 11 66 23 62 -51 62 1119 0 709 -3 1068
-10 1081 -28 51 10 49 -1117 48 -576 0 -1058 -4 -1069 -9z m1775 -336 c46 -52
51 -82 25 -137 -15 -32 -15 -39 0 -99 38 -151 11 -262 -74 -306 -68 -35 -147
-27 -342 37 -186 60 -251 67 -270 26 -18 -39 3 -89 83 -195 89 -119 129 -200
129 -260 0 -81 -65 -150 -140 -150 -39 0 -152 39 -277 94 -45 20 -104 39 -131
43 -45 5 -53 3 -76 -20 -22 -22 -26 -35 -26 -87 0 -33 9 -102 21 -153 42 -187
3 -237 -185 -237 -87 0 -97 -2 -125 -26 -20 -17 -38 -47 -51 -87 -20 -60 -20
-60 -15 -17 3 25 14 60 23 79 29 59 56 71 175 80 93 7 110 11 132 31 32 30 32
49 -5 195 -35 138 -37 177 -12 225 49 98 140 103 343 22 187 -75 235 -79 259
-22 18 43 -5 90 -103 210 -89 109 -137 197 -137 249 0 60 38 122 90 149 82 41
126 33 435 -82 95 -35 163 -35 196 0 22 23 24 35 27 135 l4 110 -41 44 c-23
25 -41 53 -41 64 0 15 10 50 35 119 8 23 33 12 74 -34z"/>
<path d="M110 2339 c-14 -5 -33 -20 -42 -32 -16 -21 -18 -93 -18 -1087 0
-1164 -4 -1094 57 -1119 21 -8 304 -11 1086 -9 l1059 3 24 28 24 28 0 1065 c0
744 -3 1071 -11 1086 -26 49 -5 48 -1116 47 -653 0 -1047 -4 -1063 -10z m1090
-382 l5 -88 52 40 c55 41 139 79 150 67 11 -11 -80 -86 -144 -118 l-63 -31 0
-49 0 -49 53 40 c56 43 115 71 144 71 29 -1 -76 -93 -141 -123 -56 -27 -56
-27 -56 -72 0 -25 2 -45 5 -45 3 0 24 15 48 33 49 37 146 82 155 72 12 -12
-89 -95 -149 -123 l-59 -27 0 -47 c0 -27 3 -48 6 -48 4 0 22 14 42 31 41 36
136 83 155 76 21 -8 -73 -88 -140 -119 l-63 -30 0 -50 0 -51 33 27 c40 33 153
89 169 84 20 -7 -75 -88 -139 -119 l-63 -30 0 -49 0 -50 53 40 c50 39 147 83
157 73 11 -11 -101 -101 -154 -124 l-56 -24 0 -47 c0 -27 2 -48 5 -48 3 0 24
15 48 33 49 37 146 82 155 72 12 -12 -88 -94 -149 -122 l-59 -27 0 -48 c0 -26
3 -48 6 -48 4 0 22 14 42 31 41 36 136 83 155 76 20 -7 -71 -85 -140 -119
l-63 -31 0 -49 0 -50 39 31 c47 37 132 81 157 81 30 -1 -76 -94 -141 -124
l-55 -26 -2 -168 c-3 -159 -4 -167 -23 -167 -19 0 -20 8 -23 170 l-3 170 -56
24 c-65 29 -170 120 -138 120 29 1 93 -31 148 -72 l47 -37 0 49 0 48 -62 31
c-63 31 -166 122 -138 122 25 0 120 -48 161 -81 l39 -31 0 50 0 50 -63 30
c-60 28 -156 106 -145 117 12 12 119 -38 162 -76 l46 -41 0 54 0 53 -58 27
c-56 26 -152 101 -152 118 0 22 121 -34 175 -81 l35 -31 0 55 c0 52 -2 55 -27
62 -60 14 -212 135 -171 135 28 0 101 -36 151 -74 l47 -36 0 49 0 48 -62 31
c-57 28 -154 109 -144 120 10 9 82 -23 142 -64 l64 -44 0 49 c0 48 -1 49 -42
66 -52 20 -143 87 -159 116 -10 19 -9 20 13 14 48 -14 106 -46 146 -81 l42
-36 0 54 0 53 -54 23 c-52 23 -166 114 -156 125 10 11 121 -41 165 -78 l45
-36 0 54 c0 51 -2 55 -27 62 -15 3 -45 17 -67 30 -50 29 -126 105 -106 105 25
0 120 -48 161 -81 l39 -31 0 84 c0 88 4 101 30 96 12 -3 16 -22 20 -91z"/>
<path d="M2533 2335 c-17 -7 -36 -22 -42 -34 -8 -14 -11 -342 -11 -1085 l0
-1065 24 -28 24 -28 1059 -3 c782 -2 1065 1 1086 9 61 25 57 -44 57 1117 0
1173 4 1098 -62 1121 -21 8 -353 11 -1067 11 -858 -1 -1041 -3 -1068 -15z
m843 -381 c60 -31 232 -127 383 -213 l275 -156 65 -100 c36 -55 71 -122 78
-148 7 -29 28 -65 51 -92 56 -64 95 -122 88 -134 -3 -5 -20 -12 -37 -16 -37
-8 -46 -28 -26 -58 9 -15 12 -29 7 -37 -5 -9 -4 -20 2 -27 8 -10 8 -21 -1 -39
-6 -14 -11 -36 -11 -50 0 -16 -13 -39 -35 -61 l-36 -36 -115 7 -115 7 -37 -38
c-21 -21 -95 -104 -165 -186 -70 -81 -131 -147 -135 -146 -9 0 -346 438 -349
453 -1 6 35 41 80 79 126 103 147 125 147 153 0 50 -33 65 -322 154 -230 70
-278 88 -278 103 0 48 144 347 234 487 52 79 113 150 131 150 6 0 61 -25 121
-56z"/>
</g>
</svg>
